<svg xmlns="http://www.w3.org/2000/svg" xmlns:xlink="http://www.w3.org/1999/xlink" width="500" zoomAndPan="magnify" viewBox="0 0 375 374.999991" height="500" preserveAspectRatio="xMidYMid meet" version="1.0"><defs><g/><clipPath id="d1f45528f3"><path d="M 0.398438 0.878906 L 332.800781 0.878906 L 332.800781 69.519531 L 0.398438 69.519531 Z M 0.398438 0.878906 " clip-rule="nonzero"/></clipPath><clipPath id="35b66227d2"><rect x="0" width="333" y="0" height="70"/></clipPath><clipPath id="c954c52508"><path d="M 14.460938 4.394531 L 31.71875 4.394531 L 31.71875 66.605469 L 14.460938 66.605469 Z M 14.460938 4.394531 " clip-rule="nonzero"/></clipPath><clipPath id="96821dcaed"><path d="M 0.460938 0.394531 L 17.71875 0.394531 L 17.71875 62.605469 L 0.460938 62.605469 Z M 0.460938 0.394531 " clip-rule="nonzero"/></clipPath><clipPath id="696c5913cf"><rect x="0" width="18" y="0" height="63"/></clipPath><clipPath id="5d5673e290"><path d="M 13.609375 29.53125 L 32.53125 29.53125 L 32.53125 41.464844 L 13.609375 41.464844 Z M 13.609375 29.53125 " clip-rule="nonzero"/></clipPath><clipPath id="8001678e6f"><path d="M 23.085938 29.53125 L 32.53125 41.464844 L 13.636719 41.464844 Z M 23.085938 29.53125 " clip-rule="nonzero"/></clipPath><clipPath id="45481d4dbc"><path d="M 0.609375 0.53125 L 19.53125 0.53125 L 19.53125 12.464844 L 0.609375 12.464844 Z M 0.609375 0.53125 " clip-rule="nonzero"/></clipPath><clipPath id="ad23c3700c"><path d="M 10.085938 0.53125 L 19.53125 12.464844 L 0.636719 12.464844 Z M 10.085938 0.53125 " clip-rule="nonzero"/></clipPath><clipPath id="cf7fdce4a6"><rect x="0" width="20" y="0" height="13"/></clipPath><clipPath id="68b6650448"><rect x="0" width="333" y="0" height="70"/></clipPath><clipPath id="f724f30076"><path d="M 97.945312 221.421875 L 250.195312 221.421875 L 250.195312 247.992188 L 97.945312 247.992188 Z M 97.945312 221.421875 " clip-rule="nonzero"/></clipPath><clipPath id="3b762e2af0"><path d="M 111.230469 221.421875 L 236.890625 221.421875 C 240.414062 221.421875 243.792969 222.820312 246.285156 225.3125 C 248.777344 227.804688 250.175781 231.183594 250.175781 234.707031 C 250.175781 238.230469 248.777344 241.609375 246.285156 244.101562 C 243.792969 246.59375 240.414062 247.992188 236.890625 247.992188 L 111.230469 247.992188 C 107.707031 247.992188 104.328125 246.59375 101.835938 244.101562 C 99.34375 241.609375 97.945312 238.230469 97.945312 234.707031 C 97.945312 231.183594 99.34375 227.804688 101.835938 225.3125 C 104.328125 222.820312 107.707031 221.421875 111.230469 221.421875 Z M 111.230469 221.421875 " clip-rule="nonzero"/></clipPath><clipPath id="ccd587ec64"><path d="M 0.945312 0.421875 L 153.195312 0.421875 L 153.195312 26.992188 L 0.945312 26.992188 Z M 0.945312 0.421875 " clip-rule="nonzero"/></clipPath><clipPath id="9045f12796"><path d="M 14.230469 0.421875 L 139.890625 0.421875 C 143.414062 0.421875 146.792969 1.820312 149.285156 4.3125 C 151.777344 6.804688 153.175781 10.183594 153.175781 13.707031 C 153.175781 17.230469 151.777344 20.609375 149.285156 23.101562 C 146.792969 25.59375 143.414062 26.992188 139.890625 26.992188 L 14.230469 26.992188 C 10.707031 26.992188 7.328125 25.59375 4.835938 23.101562 C 2.34375 20.609375 0.945312 17.230469 0.945312 13.707031 C 0.945312 10.183594 2.34375 6.804688 4.835938 4.3125 C 7.328125 1.820312 10.707031 0.421875 14.230469 0.421875 Z M 14.230469 0.421875 " clip-rule="nonzero"/></clipPath><clipPath id="19bca94388"><rect x="0" width="154" y="0" height="27"/></clipPath></defs><g transform="matrix(1, 0, 0, 1, 20, 152)"><g clip-path="url(#68b6650448)"><g clip-path="url(#d1f45528f3)"><g><g clip-path="url(#35b66227d2)"><g fill="#000000" fill-opacity="1"><g transform="translate(0.428183, 55.101705)"><g><path d="M 40.53125 -39.140625 L 40.53125 0 L 31.46875 0 L 31.46875 -16.046875 L 13.703125 -16.046875 L 13.703125 0 L 4.640625 0 L 4.640625 -39.140625 L 13.703125 -39.140625 L 13.703125 -23.703125 L 31.46875 -23.703125 L 31.46875 -39.140625 Z M 40.53125 -39.140625 "/></g></g></g><g fill="#000000" fill-opacity="1"><g transform="translate(45.60355, 55.101705)"><g><path d="M 16.15625 -30.53125 C 20.8125 -30.53125 24.390625 -29.421875 26.890625 -27.203125 C 29.390625 -24.984375 30.640625 -21.632812 30.640625 -17.15625 L 30.640625 0 L 22.46875 0 L 22.46875 -3.75 C 20.832031 -0.945312 17.78125 0.453125 13.3125 0.453125 C 11 0.453125 8.992188 0.0625 7.296875 -0.71875 C 5.597656 -1.507812 4.300781 -2.59375 3.40625 -3.96875 C 2.507812 -5.34375 2.0625 -6.910156 2.0625 -8.671875 C 2.0625 -11.460938 3.113281 -13.660156 5.21875 -15.265625 C 7.332031 -16.867188 10.585938 -17.671875 14.984375 -17.671875 L 21.921875 -17.671875 C 21.921875 -19.566406 21.34375 -21.023438 20.1875 -22.046875 C 19.03125 -23.078125 17.296875 -23.59375 14.984375 -23.59375 C 13.378906 -23.59375 11.800781 -23.335938 10.25 -22.828125 C 8.707031 -22.328125 7.394531 -21.648438 6.3125 -20.796875 L 3.1875 -26.890625 C 4.820312 -28.046875 6.785156 -28.941406 9.078125 -29.578125 C 11.367188 -30.210938 13.726562 -30.53125 16.15625 -30.53125 Z M 15.484375 -5.421875 C 16.972656 -5.421875 18.296875 -5.765625 19.453125 -6.453125 C 20.609375 -7.140625 21.429688 -8.15625 21.921875 -9.5 L 21.921875 -12.578125 L 15.9375 -12.578125 C 12.351562 -12.578125 10.5625 -11.40625 10.5625 -9.0625 C 10.5625 -7.9375 11 -7.046875 11.875 -6.390625 C 12.75 -5.742188 13.953125 -5.421875 15.484375 -5.421875 Z M 15.484375 -5.421875 "/></g></g></g><g fill="#000000" fill-opacity="1"><g transform="translate(80.100091, 55.101705)"><g><path d="M 18.5625 0.453125 C 15.351562 0.453125 12.472656 -0.207031 9.921875 -1.53125 C 7.367188 -2.851562 5.375 -4.6875 3.9375 -7.03125 C 2.5 -9.382812 1.78125 -12.050781 1.78125 -15.03125 C 1.78125 -18.019531 2.5 -20.6875 3.9375 -23.03125 C 5.375 -25.382812 7.367188 -27.222656 9.921875 -28.546875 C 12.472656 -29.867188 15.351562 -30.53125 18.5625 -30.53125 C 21.726562 -30.53125 24.492188 -29.867188 26.859375 -28.546875 C 29.222656 -27.222656 30.945312 -25.328125 32.03125 -22.859375 L 25.265625 -19.234375 C 23.703125 -21.992188 21.445312 -23.375 18.5 -23.375 C 16.226562 -23.375 14.347656 -22.625 12.859375 -21.125 C 11.367188 -19.632812 10.625 -17.601562 10.625 -15.03125 C 10.625 -12.46875 11.367188 -10.4375 12.859375 -8.9375 C 14.347656 -7.445312 16.226562 -6.703125 18.5 -6.703125 C 21.488281 -6.703125 23.742188 -8.082031 25.265625 -10.84375 L 32.03125 -7.15625 C 30.945312 -4.769531 29.222656 -2.90625 26.859375 -1.5625 C 24.492188 -0.21875 21.726562 0.453125 18.5625 0.453125 Z M 18.5625 0.453125 "/></g></g></g><g fill="#000000" fill-opacity="1"><g transform="translate(113.14297, 55.101705)"><g><path d="M 16.9375 -11.796875 L 12.75 -7.65625 L 12.75 0 L 4.03125 0 L 4.03125 -41.484375 L 12.75 -41.484375 L 12.75 -18 L 25.5 -30.078125 L 35.890625 -30.078125 L 23.375 -17.328125 L 37.015625 0 L 26.4375 0 Z M 16.9375 -11.796875 "/></g></g></g><g fill="#000000" fill-opacity="1"><g transform="translate(150.043641, 55.101705)"><g><path d="M 16.15625 -30.53125 C 20.8125 -30.53125 24.390625 -29.421875 26.890625 -27.203125 C 29.390625 -24.984375 30.640625 -21.632812 30.640625 -17.15625 L 30.640625 0 L 22.46875 0 L 22.46875 -3.75 C 20.832031 -0.945312 17.78125 0.453125 13.3125 0.453125 C 11 0.453125 8.992188 0.0625 7.296875 -0.71875 C 5.597656 -1.507812 4.300781 -2.59375 3.40625 -3.96875 C 2.507812 -5.34375 2.0625 -6.910156 2.0625 -8.671875 C 2.0625 -11.460938 3.113281 -13.660156 5.21875 -15.265625 C 7.332031 -16.867188 10.585938 -17.671875 14.984375 -17.671875 L 21.921875 -17.671875 C 21.921875 -19.566406 21.34375 -21.023438 20.1875 -22.046875 C 19.03125 -23.078125 17.296875 -23.59375 14.984375 -23.59375 C 13.378906 -23.59375 11.800781 -23.335938 10.25 -22.828125 C 8.707031 -22.328125 7.394531 -21.648438 6.3125 -20.796875 L 3.1875 -26.890625 C 4.820312 -28.046875 6.785156 -28.941406 9.078125 -29.578125 C 11.367188 -30.210938 13.726562 -30.53125 16.15625 -30.53125 Z M 15.484375 -5.421875 C 16.972656 -5.421875 18.296875 -5.765625 19.453125 -6.453125 C 20.609375 -7.140625 21.429688 -8.15625 21.921875 -9.5 L 21.921875 -12.578125 L 15.9375 -12.578125 C 12.351562 -12.578125 10.5625 -11.40625 10.5625 -9.0625 C 10.5625 -7.9375 11 -7.046875 11.875 -6.390625 C 12.75 -5.742188 13.953125 -5.421875 15.484375 -5.421875 Z M 15.484375 -5.421875 "/></g></g></g><g fill="#000000" fill-opacity="1"><g transform="translate(184.540183, 55.101705)"><g><path d="M 21.796875 -30.53125 C 24.597656 -30.53125 27.144531 -29.882812 29.4375 -28.59375 C 31.726562 -27.3125 33.523438 -25.503906 34.828125 -23.171875 C 36.128906 -20.835938 36.78125 -18.125 36.78125 -15.03125 C 36.78125 -11.945312 36.128906 -9.238281 34.828125 -6.90625 C 33.523438 -4.570312 31.726562 -2.757812 29.4375 -1.46875 C 27.144531 -0.1875 24.597656 0.453125 21.796875 0.453125 C 17.660156 0.453125 14.515625 -0.851562 12.359375 -3.46875 L 12.359375 0 L 4.03125 0 L 4.03125 -41.484375 L 12.75 -41.484375 L 12.75 -26.890625 C 14.945312 -29.316406 17.960938 -30.53125 21.796875 -30.53125 Z M 20.296875 -6.703125 C 22.523438 -6.703125 24.359375 -7.457031 25.796875 -8.96875 C 27.234375 -10.476562 27.953125 -12.5 27.953125 -15.03125 C 27.953125 -17.570312 27.234375 -19.597656 25.796875 -21.109375 C 24.359375 -22.617188 22.523438 -23.375 20.296875 -23.375 C 18.054688 -23.375 16.21875 -22.617188 14.78125 -21.109375 C 13.351562 -19.597656 12.640625 -17.570312 12.640625 -15.03125 C 12.640625 -12.5 13.351562 -10.476562 14.78125 -8.96875 C 16.21875 -7.457031 18.054688 -6.703125 20.296875 -6.703125 Z M 20.296875 -6.703125 "/></g></g></g><g fill="#000000" fill-opacity="1"><g transform="translate(223.118156, 55.101705)"><g><path d="M 4.03125 -30.078125 L 12.75 -30.078125 L 12.75 0 L 4.03125 0 Z M 8.390625 -34.265625 C 6.785156 -34.265625 5.476562 -34.726562 4.46875 -35.65625 C 3.46875 -36.59375 2.96875 -37.753906 2.96875 -39.140625 C 2.96875 -40.515625 3.46875 -41.664062 4.46875 -42.59375 C 5.476562 -43.53125 6.785156 -44 8.390625 -44 C 9.984375 -44 11.285156 -43.550781 12.296875 -42.65625 C 13.304688 -41.757812 13.8125 -40.640625 13.8125 -39.296875 C 13.8125 -37.847656 13.304688 -36.644531 12.296875 -35.6875 C 11.285156 -34.738281 9.984375 -34.265625 8.390625 -34.265625 Z M 8.390625 -34.265625 "/></g></g></g><g fill="#000000" fill-opacity="1"><g transform="translate(239.947105, 55.101705)"><g><path d="M 4.03125 -41.484375 L 12.75 -41.484375 L 12.75 0 L 4.03125 0 Z M 4.03125 -41.484375 "/></g></g></g><g fill="#000000" fill-opacity="1"><g transform="translate(256.776053, 55.101705)"><g><path d="M 4.03125 -30.078125 L 12.75 -30.078125 L 12.75 0 L 4.03125 0 Z M 8.390625 -34.265625 C 6.785156 -34.265625 5.476562 -34.726562 4.46875 -35.65625 C 3.46875 -36.59375 2.96875 -37.753906 2.96875 -39.140625 C 2.96875 -40.515625 3.46875 -41.664062 4.46875 -42.59375 C 5.476562 -43.53125 6.785156 -44 8.390625 -44 C 9.984375 -44 11.285156 -43.550781 12.296875 -42.65625 C 13.304688 -41.757812 13.8125 -40.640625 13.8125 -39.296875 C 13.8125 -37.847656 13.304688 -36.644531 12.296875 -35.6875 C 11.285156 -34.738281 9.984375 -34.265625 8.390625 -34.265625 Z M 8.390625 -34.265625 "/></g></g></g><g fill="#000000" fill-opacity="1"><g transform="translate(273.605001, 55.101705)"><g><path d="M 23.421875 -1.453125 C 22.566406 -0.816406 21.515625 -0.335938 20.265625 -0.015625 C 19.015625 0.296875 17.703125 0.453125 16.328125 0.453125 C 12.742188 0.453125 9.972656 -0.457031 8.015625 -2.28125 C 6.066406 -4.113281 5.09375 -6.800781 5.09375 -10.34375 L 5.09375 -22.703125 L 0.453125 -22.703125 L 0.453125 -29.40625 L 5.09375 -29.40625 L 5.09375 -36.734375 L 13.8125 -36.734375 L 13.8125 -29.40625 L 21.296875 -29.40625 L 21.296875 -22.703125 L 13.8125 -22.703125 L 13.8125 -10.453125 C 13.8125 -9.179688 14.132812 -8.203125 14.78125 -7.515625 C 15.4375 -6.828125 16.359375 -6.484375 17.546875 -6.484375 C 18.929688 -6.484375 20.109375 -6.859375 21.078125 -7.609375 Z M 23.421875 -1.453125 "/></g></g></g><g fill="#000000" fill-opacity="1"><g transform="translate(297.925891, 55.101705)"><g><path d="M 33.875 -30.078125 L 20.296875 1.84375 C 18.910156 5.3125 17.203125 7.753906 15.171875 9.171875 C 13.140625 10.585938 10.691406 11.296875 7.828125 11.296875 C 6.265625 11.296875 4.71875 11.050781 3.1875 10.5625 C 1.65625 10.082031 0.40625 9.410156 -0.5625 8.546875 L 2.625 2.34375 C 3.300781 2.945312 4.078125 3.414062 4.953125 3.75 C 5.828125 4.082031 6.691406 4.25 7.546875 4.25 C 8.742188 4.25 9.710938 3.957031 10.453125 3.375 C 11.203125 2.800781 11.875 1.84375 12.46875 0.5 L 12.578125 0.21875 L -0.453125 -30.078125 L 8.546875 -30.078125 L 17 -9.671875 L 25.5 -30.078125 Z M 33.875 -30.078125 "/></g></g></g></g></g></g><g clip-path="url(#c954c52508)"><g transform="matrix(1, 0, 0, 1, 14, 4)"><g clip-path="url(#696c5913cf)"><g clip-path="url(#96821dcaed)"><path fill="#ffffff" d="M 0.460938 0.394531 L 17.71875 0.394531 L 17.71875 62.617188 L 0.460938 62.617188 Z M 0.460938 0.394531 " fill-opacity="1" fill-rule="nonzero"/></g></g></g></g><g clip-path="url(#5d5673e290)"><g clip-path="url(#8001678e6f)"><g transform="matrix(1, 0, 0, 1, 13, 29)"><g clip-path="url(#cf7fdce4a6)"><g clip-path="url(#45481d4dbc)"><g clip-path="url(#ad23c3700c)"><path fill="#ffc500" d="M 19.53125 0.53125 L 19.53125 12.464844 L 0.652344 12.464844 L 0.652344 0.53125 Z M 19.53125 0.53125 " fill-opacity="1" fill-rule="nonzero"/></g></g></g></g></g></g></g></g><g clip-path="url(#f724f30076)"><g clip-path="url(#3b762e2af0)"><g transform="matrix(1, 0, 0, 1, 97, 221)"><g clip-path="url(#19bca94388)"><g clip-path="url(#ccd587ec64)"><g clip-path="url(#9045f12796)"><path fill="#ffc500" d="M 0.945312 0.421875 L 153.195312 0.421875 L 153.195312 26.992188 L 0.945312 26.992188 Z M 0.945312 0.421875 " fill-opacity="1" fill-rule="nonzero"/></g></g></g></g></g></g><g fill="#062510" fill-opacity="1"><g transform="translate(111.934428, 240.343652)"><g><path d="M 7.109375 -8.65625 L 5.203125 -8.65625 L 5.203125 0 L 1.640625 0 L 1.640625 -8.65625 L 0.359375 -8.65625 L 0.359375 -11.609375 L 1.640625 -11.609375 L 1.640625 -11.9375 C 1.640625 -13.363281 2.046875 -14.445312 2.859375 -15.1875 C 3.679688 -15.925781 4.882812 -16.296875 6.46875 -16.296875 C 6.726562 -16.296875 6.921875 -16.289062 7.046875 -16.28125 L 7.046875 -13.265625 C 6.367188 -13.304688 5.890625 -13.207031 5.609375 -12.96875 C 5.335938 -12.738281 5.203125 -12.316406 5.203125 -11.703125 L 5.203125 -11.609375 L 7.109375 -11.609375 Z M 7.109375 -8.65625 "/></g></g></g><g fill="#062510" fill-opacity="1"><g transform="translate(119.418497, 240.343652)"><g><path d="M 6.578125 0.171875 C 5.429688 0.171875 4.40625 -0.0703125 3.5 -0.5625 C 2.59375 -1.050781 1.878906 -1.742188 1.359375 -2.640625 C 0.835938 -3.546875 0.578125 -4.597656 0.578125 -5.796875 C 0.578125 -6.992188 0.835938 -8.046875 1.359375 -8.953125 C 1.890625 -9.859375 2.613281 -10.550781 3.53125 -11.03125 C 4.445312 -11.519531 5.472656 -11.765625 6.609375 -11.765625 C 7.742188 -11.765625 8.769531 -11.519531 9.6875 -11.03125 C 10.601562 -10.550781 11.320312 -9.859375 11.84375 -8.953125 C 12.375 -8.046875 12.640625 -6.992188 12.640625 -5.796875 C 12.640625 -4.609375 12.375 -3.5625 11.84375 -2.65625 C 11.3125 -1.75 10.582031 -1.050781 9.65625 -0.5625 C 8.738281 -0.0703125 7.710938 0.171875 6.578125 0.171875 Z M 6.578125 -2.90625 C 7.253906 -2.90625 7.832031 -3.15625 8.3125 -3.65625 C 8.789062 -4.15625 9.03125 -4.867188 9.03125 -5.796875 C 9.03125 -6.734375 8.796875 -7.445312 8.328125 -7.9375 C 7.859375 -8.4375 7.285156 -8.6875 6.609375 -8.6875 C 5.921875 -8.6875 5.347656 -8.441406 4.890625 -7.953125 C 4.429688 -7.460938 4.203125 -6.742188 4.203125 -5.796875 C 4.203125 -4.867188 4.425781 -4.15625 4.875 -3.65625 C 5.320312 -3.15625 5.890625 -2.90625 6.578125 -2.90625 Z M 6.578125 -2.90625 "/></g></g></g><g fill="#062510" fill-opacity="1"><g transform="translate(132.661141, 240.343652)"><g><path d="M 4.84375 -9.671875 C 5.257812 -10.304688 5.78125 -10.804688 6.40625 -11.171875 C 7.03125 -11.546875 7.722656 -11.734375 8.484375 -11.734375 L 8.484375 -7.96875 L 7.5 -7.96875 C 6.613281 -7.96875 5.945312 -7.773438 5.5 -7.390625 C 5.0625 -7.015625 4.84375 -6.347656 4.84375 -5.390625 L 4.84375 0 L 1.296875 0 L 1.296875 -11.609375 L 4.84375 -11.609375 Z M 4.84375 -9.671875 "/></g></g></g><g fill="#062510" fill-opacity="1"><g transform="translate(141.558865, 240.343652)"><g/></g></g><g fill="#062510" fill-opacity="1"><g transform="translate(145.966156, 240.343652)"><g><path d="M 0.578125 -5.796875 C 0.578125 -7.003906 0.820312 -8.054688 1.3125 -8.953125 C 1.8125 -9.859375 2.5 -10.550781 3.375 -11.03125 C 4.257812 -11.519531 5.269531 -11.765625 6.40625 -11.765625 C 7.863281 -11.765625 9.078125 -11.382812 10.046875 -10.625 C 11.023438 -9.863281 11.671875 -8.789062 11.984375 -7.40625 L 8.1875 -7.40625 C 7.875 -8.289062 7.257812 -8.734375 6.34375 -8.734375 C 5.6875 -8.734375 5.164062 -8.476562 4.78125 -7.96875 C 4.394531 -7.46875 4.203125 -6.742188 4.203125 -5.796875 C 4.203125 -4.859375 4.394531 -4.132812 4.78125 -3.625 C 5.164062 -3.125 5.6875 -2.875 6.34375 -2.875 C 7.257812 -2.875 7.875 -3.316406 8.1875 -4.203125 L 11.984375 -4.203125 C 11.671875 -2.835938 11.019531 -1.765625 10.03125 -0.984375 C 9.050781 -0.210938 7.84375 0.171875 6.40625 0.171875 C 5.269531 0.171875 4.257812 -0.0703125 3.375 -0.5625 C 2.5 -1.050781 1.8125 -1.742188 1.3125 -2.640625 C 0.820312 -3.546875 0.578125 -4.597656 0.578125 -5.796875 Z M 0.578125 -5.796875 "/></g></g></g><g fill="#062510" fill-opacity="1"><g transform="translate(158.543555, 240.343652)"><g><path d="M 6.578125 0.171875 C 5.429688 0.171875 4.40625 -0.0703125 3.5 -0.5625 C 2.59375 -1.050781 1.878906 -1.742188 1.359375 -2.640625 C 0.835938 -3.546875 0.578125 -4.597656 0.578125 -5.796875 C 0.578125 -6.992188 0.835938 -8.046875 1.359375 -8.953125 C 1.890625 -9.859375 2.613281 -10.550781 3.53125 -11.03125 C 4.445312 -11.519531 5.472656 -11.765625 6.609375 -11.765625 C 7.742188 -11.765625 8.769531 -11.519531 9.6875 -11.03125 C 10.601562 -10.550781 11.320312 -9.859375 11.84375 -8.953125 C 12.375 -8.046875 12.640625 -6.992188 12.640625 -5.796875 C 12.640625 -4.609375 12.375 -3.5625 11.84375 -2.65625 C 11.3125 -1.75 10.582031 -1.050781 9.65625 -0.5625 C 8.738281 -0.0703125 7.710938 0.171875 6.578125 0.171875 Z M 6.578125 -2.90625 C 7.253906 -2.90625 7.832031 -3.15625 8.3125 -3.65625 C 8.789062 -4.15625 9.03125 -4.867188 9.03125 -5.796875 C 9.03125 -6.734375 8.796875 -7.445312 8.328125 -7.9375 C 7.859375 -8.4375 7.285156 -8.6875 6.609375 -8.6875 C 5.921875 -8.6875 5.347656 -8.441406 4.890625 -7.953125 C 4.429688 -7.460938 4.203125 -6.742188 4.203125 -5.796875 C 4.203125 -4.867188 4.425781 -4.15625 4.875 -3.65625 C 5.320312 -3.15625 5.890625 -2.90625 6.578125 -2.90625 Z M 6.578125 -2.90625 "/></g></g></g><g fill="#062510" fill-opacity="1"><g transform="translate(171.786199, 240.343652)"><g><path d="M 4.84375 -15.390625 L 4.84375 0 L 1.296875 0 L 1.296875 -15.390625 Z M 4.84375 -15.390625 "/></g></g></g><g fill="#062510" fill-opacity="1"><g transform="translate(177.918985, 240.343652)"><g><path d="M 4.84375 -15.390625 L 4.84375 0 L 1.296875 0 L 1.296875 -15.390625 Z M 4.84375 -15.390625 "/></g></g></g><g fill="#062510" fill-opacity="1"><g transform="translate(184.05177, 240.343652)"><g><path d="M 12.234375 -5.984375 C 12.234375 -5.648438 12.210938 -5.304688 12.171875 -4.953125 L 4.125 -4.953125 C 4.175781 -4.234375 4.40625 -3.679688 4.8125 -3.296875 C 5.21875 -2.910156 5.722656 -2.71875 6.328125 -2.71875 C 7.210938 -2.71875 7.828125 -3.09375 8.171875 -3.84375 L 11.953125 -3.84375 C 11.765625 -3.082031 11.414062 -2.394531 10.90625 -1.78125 C 10.40625 -1.175781 9.769531 -0.695312 9 -0.34375 C 8.238281 0 7.390625 0.171875 6.453125 0.171875 C 5.304688 0.171875 4.289062 -0.0703125 3.40625 -0.5625 C 2.519531 -1.050781 1.828125 -1.742188 1.328125 -2.640625 C 0.828125 -3.546875 0.578125 -4.597656 0.578125 -5.796875 C 0.578125 -7.003906 0.820312 -8.054688 1.3125 -8.953125 C 1.8125 -9.859375 2.503906 -10.550781 3.390625 -11.03125 C 4.273438 -11.519531 5.296875 -11.765625 6.453125 -11.765625 C 7.566406 -11.765625 8.5625 -11.53125 9.4375 -11.0625 C 10.3125 -10.59375 10.992188 -9.921875 11.484375 -9.046875 C 11.984375 -8.171875 12.234375 -7.148438 12.234375 -5.984375 Z M 8.59375 -6.921875 C 8.59375 -7.535156 8.382812 -8.019531 7.96875 -8.375 C 7.550781 -8.738281 7.03125 -8.921875 6.40625 -8.921875 C 5.8125 -8.921875 5.304688 -8.742188 4.890625 -8.390625 C 4.484375 -8.046875 4.234375 -7.554688 4.140625 -6.921875 Z M 8.59375 -6.921875 "/></g></g></g><g fill="#062510" fill-opacity="1"><g transform="translate(196.857845, 240.343652)"><g><path d="M 5.703125 -11.765625 C 6.515625 -11.765625 7.226562 -11.597656 7.84375 -11.265625 C 8.46875 -10.929688 8.945312 -10.5 9.28125 -9.96875 L 9.28125 -11.609375 L 12.828125 -11.609375 L 12.828125 -0.015625 C 12.828125 1.046875 12.613281 2.007812 12.1875 2.875 C 11.769531 3.75 11.128906 4.441406 10.265625 4.953125 C 9.398438 5.460938 8.320312 5.71875 7.03125 5.71875 C 5.3125 5.71875 3.914062 5.3125 2.84375 4.5 C 1.78125 3.6875 1.171875 2.585938 1.015625 1.203125 L 4.53125 1.203125 C 4.644531 1.648438 4.910156 2 5.328125 2.25 C 5.742188 2.507812 6.253906 2.640625 6.859375 2.640625 C 7.597656 2.640625 8.1875 2.425781 8.625 2 C 9.0625 1.582031 9.28125 0.910156 9.28125 -0.015625 L 9.28125 -1.65625 C 8.925781 -1.125 8.441406 -0.6875 7.828125 -0.34375 C 7.222656 0 6.515625 0.171875 5.703125 0.171875 C 4.742188 0.171875 3.875 -0.0703125 3.09375 -0.5625 C 2.320312 -1.0625 1.707031 -1.765625 1.25 -2.671875 C 0.800781 -3.578125 0.578125 -4.628906 0.578125 -5.828125 C 0.578125 -7.015625 0.800781 -8.054688 1.25 -8.953125 C 1.707031 -9.859375 2.320312 -10.550781 3.09375 -11.03125 C 3.875 -11.519531 4.742188 -11.765625 5.703125 -11.765625 Z M 9.28125 -5.796875 C 9.28125 -6.691406 9.03125 -7.394531 8.53125 -7.90625 C 8.039062 -8.414062 7.441406 -8.671875 6.734375 -8.671875 C 6.023438 -8.671875 5.425781 -8.414062 4.9375 -7.90625 C 4.445312 -7.40625 4.203125 -6.710938 4.203125 -5.828125 C 4.203125 -4.929688 4.445312 -4.222656 4.9375 -3.703125 C 5.425781 -3.191406 6.023438 -2.9375 6.734375 -2.9375 C 7.441406 -2.9375 8.039062 -3.191406 8.53125 -3.703125 C 9.03125 -4.210938 9.28125 -4.910156 9.28125 -5.796875 Z M 9.28125 -5.796875 "/></g></g></g><g fill="#062510" fill-opacity="1"><g transform="translate(210.973639, 240.343652)"><g><path d="M 12.234375 -5.984375 C 12.234375 -5.648438 12.210938 -5.304688 12.171875 -4.953125 L 4.125 -4.953125 C 4.175781 -4.234375 4.40625 -3.679688 4.8125 -3.296875 C 5.21875 -2.910156 5.722656 -2.71875 6.328125 -2.71875 C 7.210938 -2.71875 7.828125 -3.09375 8.171875 -3.84375 L 11.953125 -3.84375 C 11.765625 -3.082031 11.414062 -2.394531 10.90625 -1.78125 C 10.40625 -1.175781 9.769531 -0.695312 9 -0.34375 C 8.238281 0 7.390625 0.171875 6.453125 0.171875 C 5.304688 0.171875 4.289062 -0.0703125 3.40625 -0.5625 C 2.519531 -1.050781 1.828125 -1.742188 1.328125 -2.640625 C 0.828125 -3.546875 0.578125 -4.597656 0.578125 -5.796875 C 0.578125 -7.003906 0.820312 -8.054688 1.3125 -8.953125 C 1.8125 -9.859375 2.503906 -10.550781 3.390625 -11.03125 C 4.273438 -11.519531 5.296875 -11.765625 6.453125 -11.765625 C 7.566406 -11.765625 8.5625 -11.53125 9.4375 -11.0625 C 10.3125 -10.59375 10.992188 -9.921875 11.484375 -9.046875 C 11.984375 -8.171875 12.234375 -7.148438 12.234375 -5.984375 Z M 8.59375 -6.921875 C 8.59375 -7.535156 8.382812 -8.019531 7.96875 -8.375 C 7.550781 -8.738281 7.03125 -8.921875 6.40625 -8.921875 C 5.8125 -8.921875 5.304688 -8.742188 4.890625 -8.390625 C 4.484375 -8.046875 4.234375 -7.554688 4.140625 -6.921875 Z M 8.59375 -6.921875 "/></g></g></g><g fill="#062510" fill-opacity="1"><g transform="translate(223.779714, 240.343652)"><g><path d="M 6.015625 0.171875 C 4.992188 0.171875 4.085938 0 3.296875 -0.34375 C 2.515625 -0.695312 1.894531 -1.175781 1.4375 -1.78125 C 0.976562 -2.382812 0.722656 -3.0625 0.671875 -3.8125 L 4.1875 -3.8125 C 4.226562 -3.40625 4.410156 -3.078125 4.734375 -2.828125 C 5.066406 -2.578125 5.476562 -2.453125 5.96875 -2.453125 C 6.414062 -2.453125 6.757812 -2.535156 7 -2.703125 C 7.238281 -2.878906 7.359375 -3.109375 7.359375 -3.390625 C 7.359375 -3.722656 7.1875 -3.96875 6.84375 -4.125 C 6.5 -4.289062 5.9375 -4.46875 5.15625 -4.65625 C 4.320312 -4.851562 3.628906 -5.054688 3.078125 -5.265625 C 2.523438 -5.484375 2.046875 -5.820312 1.640625 -6.28125 C 1.242188 -6.75 1.046875 -7.378906 1.046875 -8.171875 C 1.046875 -8.835938 1.226562 -9.441406 1.59375 -9.984375 C 1.957031 -10.535156 2.492188 -10.96875 3.203125 -11.28125 C 3.921875 -11.601562 4.773438 -11.765625 5.765625 -11.765625 C 7.210938 -11.765625 8.351562 -11.40625 9.1875 -10.6875 C 10.03125 -9.96875 10.515625 -9.007812 10.640625 -7.8125 L 7.359375 -7.8125 C 7.304688 -8.21875 7.128906 -8.535156 6.828125 -8.765625 C 6.535156 -9.003906 6.144531 -9.125 5.65625 -9.125 C 5.238281 -9.125 4.921875 -9.046875 4.703125 -8.890625 C 4.484375 -8.734375 4.375 -8.515625 4.375 -8.234375 C 4.375 -7.898438 4.546875 -7.648438 4.890625 -7.484375 C 5.242188 -7.316406 5.796875 -7.148438 6.546875 -6.984375 C 7.410156 -6.765625 8.113281 -6.546875 8.65625 -6.328125 C 9.195312 -6.117188 9.671875 -5.773438 10.078125 -5.296875 C 10.484375 -4.816406 10.691406 -4.175781 10.703125 -3.375 C 10.703125 -2.6875 10.507812 -2.078125 10.125 -1.546875 C 9.75 -1.015625 9.203125 -0.59375 8.484375 -0.28125 C 7.773438 0.0195312 6.953125 0.171875 6.015625 0.171875 Z M 6.015625 0.171875 "/></g></g></g><g fill="#062510" fill-opacity="1"><g transform="translate(235.391451, 240.343652)"><g/></g></g></svg>