<svg xmlns="http://www.w3.org/2000/svg" xmlns:xlink="http://www.w3.org/1999/xlink" width="500" zoomAndPan="magnify" viewBox="0 0 375 374.999991" height="500" preserveAspectRatio="xMidYMid meet" version="1.0"><defs><g/><clipPath id="50db9eb241"><path d="M 126.875 201.75 L 297.082031 201.75 L 297.082031 228.320312 L 126.875 228.320312 Z M 126.875 201.75 " clip-rule="nonzero"/></clipPath><clipPath id="4bdbb01280"><path d="M 140.160156 201.75 L 283.761719 201.75 C 287.285156 201.75 290.664062 203.152344 293.15625 205.640625 C 295.648438 208.132812 297.046875 211.511719 297.046875 215.035156 C 297.046875 218.558594 295.648438 221.9375 293.15625 224.429688 C 290.664062 226.921875 287.285156 228.320312 283.761719 228.320312 L 140.160156 228.320312 C 136.636719 228.320312 133.257812 226.921875 130.769531 224.429688 C 128.277344 221.9375 126.875 218.558594 126.875 215.035156 C 126.875 211.511719 128.277344 208.132812 130.769531 205.640625 C 133.257812 203.152344 136.636719 201.75 140.160156 201.75 Z M 140.160156 201.75 " clip-rule="nonzero"/></clipPath><clipPath id="1ec5f1e1ac"><path d="M 0.875 0.75 L 171.082031 0.75 L 171.082031 27.320312 L 0.875 27.320312 Z M 0.875 0.75 " clip-rule="nonzero"/></clipPath><clipPath id="d97e0abf4b"><path d="M 14.160156 0.75 L 157.761719 0.75 C 161.285156 0.75 164.664062 2.152344 167.15625 4.640625 C 169.648438 7.132812 171.046875 10.511719 171.046875 14.035156 C 171.046875 17.558594 169.648438 20.9375 167.15625 23.429688 C 164.664062 25.921875 161.285156 27.320312 157.761719 27.320312 L 14.160156 27.320312 C 10.636719 27.320312 7.257812 25.921875 4.769531 23.429688 C 2.277344 20.9375 0.875 17.558594 0.875 14.035156 C 0.875 10.511719 2.277344 7.132812 4.769531 4.640625 C 7.257812 2.152344 10.636719 0.75 14.160156 0.75 Z M 14.160156 0.75 " clip-rule="nonzero"/></clipPath><clipPath id="92b20ca2a7"><rect x="0" width="172" y="0" height="28"/></clipPath><clipPath id="9017ea8d82"><rect x="0" width="215" y="0" height="47"/></clipPath><clipPath id="0c4a70425a"><path d="M 66 194 L 71 194 L 71 201.902344 L 66 201.902344 Z M 66 194 " clip-rule="nonzero"/></clipPath><clipPath id="df8de5f301"><path d="M 27.589844 132 L 69 132 L 69 165 L 27.589844 165 Z M 27.589844 132 " clip-rule="nonzero"/></clipPath><clipPath id="96c52bd37b"><path d="M 84 140 L 106.339844 140 L 106.339844 186 L 84 186 Z M 84 140 " clip-rule="nonzero"/></clipPath></defs><g clip-path="url(#50db9eb241)"><g clip-path="url(#4bdbb01280)"><g transform="matrix(1, 0, 0, 1, 126, 201)"><g clip-path="url(#92b20ca2a7)"><g clip-path="url(#1ec5f1e1ac)"><g clip-path="url(#d97e0abf4b)"><path fill="#ffc500" d="M 0.875 0.75 L 171.082031 0.75 L 171.082031 27.320312 L 0.875 27.320312 Z M 0.875 0.75 " fill-opacity="1" fill-rule="nonzero"/></g></g></g></g></g></g><g fill="#062510" fill-opacity="1"><g transform="translate(153.188886, 222.8994)"><g><path d="M 7.109375 -8.65625 L 5.203125 -8.65625 L 5.203125 0 L 1.640625 0 L 1.640625 -8.65625 L 0.359375 -8.65625 L 0.359375 -11.609375 L 1.640625 -11.609375 L 1.640625 -11.9375 C 1.640625 -13.363281 2.046875 -14.445312 2.859375 -15.1875 C 3.679688 -15.925781 4.882812 -16.296875 6.46875 -16.296875 C 6.726562 -16.296875 6.921875 -16.289062 7.046875 -16.28125 L 7.046875 -13.265625 C 6.367188 -13.304688 5.890625 -13.207031 5.609375 -12.96875 C 5.335938 -12.738281 5.203125 -12.316406 5.203125 -11.703125 L 5.203125 -11.609375 L 7.109375 -11.609375 Z M 7.109375 -8.65625 "/></g></g></g><g fill="#062510" fill-opacity="1"><g transform="translate(160.672956, 222.8994)"><g><path d="M 6.578125 0.171875 C 5.429688 0.171875 4.40625 -0.0703125 3.5 -0.5625 C 2.59375 -1.050781 1.878906 -1.742188 1.359375 -2.640625 C 0.835938 -3.546875 0.578125 -4.597656 0.578125 -5.796875 C 0.578125 -6.992188 0.835938 -8.046875 1.359375 -8.953125 C 1.890625 -9.859375 2.613281 -10.550781 3.53125 -11.03125 C 4.445312 -11.519531 5.472656 -11.765625 6.609375 -11.765625 C 7.742188 -11.765625 8.769531 -11.519531 9.6875 -11.03125 C 10.601562 -10.550781 11.320312 -9.859375 11.84375 -8.953125 C 12.375 -8.046875 12.640625 -6.992188 12.640625 -5.796875 C 12.640625 -4.609375 12.375 -3.5625 11.84375 -2.65625 C 11.3125 -1.75 10.582031 -1.050781 9.65625 -0.5625 C 8.738281 -0.0703125 7.710938 0.171875 6.578125 0.171875 Z M 6.578125 -2.90625 C 7.253906 -2.90625 7.832031 -3.15625 8.3125 -3.65625 C 8.789062 -4.15625 9.03125 -4.867188 9.03125 -5.796875 C 9.03125 -6.734375 8.796875 -7.445312 8.328125 -7.9375 C 7.859375 -8.4375 7.285156 -8.6875 6.609375 -8.6875 C 5.921875 -8.6875 5.347656 -8.441406 4.890625 -7.953125 C 4.429688 -7.460938 4.203125 -6.742188 4.203125 -5.796875 C 4.203125 -4.867188 4.425781 -4.15625 4.875 -3.65625 C 5.320312 -3.15625 5.890625 -2.90625 6.578125 -2.90625 Z M 6.578125 -2.90625 "/></g></g></g><g fill="#062510" fill-opacity="1"><g transform="translate(173.9156, 222.8994)"><g><path d="M 4.84375 -9.671875 C 5.257812 -10.304688 5.78125 -10.804688 6.40625 -11.171875 C 7.03125 -11.546875 7.722656 -11.734375 8.484375 -11.734375 L 8.484375 -7.96875 L 7.5 -7.96875 C 6.613281 -7.96875 5.945312 -7.773438 5.5 -7.390625 C 5.0625 -7.015625 4.84375 -6.347656 4.84375 -5.390625 L 4.84375 0 L 1.296875 0 L 1.296875 -11.609375 L 4.84375 -11.609375 Z M 4.84375 -9.671875 "/></g></g></g><g fill="#062510" fill-opacity="1"><g transform="translate(182.813323, 222.8994)"><g/></g></g><g fill="#062510" fill-opacity="1"><g transform="translate(187.220615, 222.8994)"><g><path d="M 6.578125 0.140625 C 5.503906 0.140625 4.546875 -0.03125 3.703125 -0.375 C 2.859375 -0.71875 2.179688 -1.226562 1.671875 -1.90625 C 1.171875 -2.59375 0.90625 -3.414062 0.875 -4.375 L 4.65625 -4.375 C 4.707031 -3.832031 4.894531 -3.414062 5.21875 -3.125 C 5.539062 -2.84375 5.957031 -2.703125 6.46875 -2.703125 C 7 -2.703125 7.414062 -2.820312 7.71875 -3.0625 C 8.019531 -3.3125 8.171875 -3.648438 8.171875 -4.078125 C 8.171875 -4.429688 8.046875 -4.726562 7.796875 -4.96875 C 7.554688 -5.207031 7.257812 -5.398438 6.90625 -5.546875 C 6.5625 -5.703125 6.0625 -5.878906 5.40625 -6.078125 C 4.46875 -6.367188 3.695312 -6.660156 3.09375 -6.953125 C 2.5 -7.242188 1.988281 -7.671875 1.5625 -8.234375 C 1.132812 -8.804688 0.921875 -9.546875 0.921875 -10.453125 C 0.921875 -11.816406 1.410156 -12.882812 2.390625 -13.65625 C 3.378906 -14.425781 4.660156 -14.8125 6.234375 -14.8125 C 7.847656 -14.8125 9.144531 -14.425781 10.125 -13.65625 C 11.113281 -12.882812 11.640625 -11.8125 11.703125 -10.4375 L 7.859375 -10.4375 C 7.828125 -10.90625 7.648438 -11.273438 7.328125 -11.546875 C 7.015625 -11.816406 6.609375 -11.953125 6.109375 -11.953125 C 5.679688 -11.953125 5.332031 -11.835938 5.0625 -11.609375 C 4.800781 -11.378906 4.671875 -11.050781 4.671875 -10.625 C 4.671875 -10.15625 4.894531 -9.785156 5.34375 -9.515625 C 5.789062 -9.253906 6.484375 -8.972656 7.421875 -8.671875 C 8.367188 -8.347656 9.132812 -8.039062 9.71875 -7.75 C 10.3125 -7.46875 10.820312 -7.046875 11.25 -6.484375 C 11.675781 -5.929688 11.890625 -5.21875 11.890625 -4.34375 C 11.890625 -3.507812 11.675781 -2.753906 11.25 -2.078125 C 10.832031 -1.398438 10.222656 -0.859375 9.421875 -0.453125 C 8.617188 -0.0546875 7.671875 0.140625 6.578125 0.140625 Z M 6.578125 0.140625 "/></g></g></g><g fill="#062510" fill-opacity="1"><g transform="translate(200.005907, 222.8994)"><g><path d="M 0.578125 -5.796875 C 0.578125 -7.003906 0.820312 -8.054688 1.3125 -8.953125 C 1.8125 -9.859375 2.5 -10.550781 3.375 -11.03125 C 4.257812 -11.519531 5.269531 -11.765625 6.40625 -11.765625 C 7.863281 -11.765625 9.078125 -11.382812 10.046875 -10.625 C 11.023438 -9.863281 11.671875 -8.789062 11.984375 -7.40625 L 8.1875 -7.40625 C 7.875 -8.289062 7.257812 -8.734375 6.34375 -8.734375 C 5.6875 -8.734375 5.164062 -8.476562 4.78125 -7.96875 C 4.394531 -7.46875 4.203125 -6.742188 4.203125 -5.796875 C 4.203125 -4.859375 4.394531 -4.132812 4.78125 -3.625 C 5.164062 -3.125 5.6875 -2.875 6.34375 -2.875 C 7.257812 -2.875 7.875 -3.316406 8.1875 -4.203125 L 11.984375 -4.203125 C 11.671875 -2.835938 11.019531 -1.765625 10.03125 -0.984375 C 9.050781 -0.210938 7.84375 0.171875 6.40625 0.171875 C 5.269531 0.171875 4.257812 -0.0703125 3.375 -0.5625 C 2.5 -1.050781 1.8125 -1.742188 1.3125 -2.640625 C 0.820312 -3.546875 0.578125 -4.597656 0.578125 -5.796875 Z M 0.578125 -5.796875 "/></g></g></g><g fill="#062510" fill-opacity="1"><g transform="translate(212.583307, 222.8994)"><g><path d="M 8.421875 -11.734375 C 9.753906 -11.734375 10.820312 -11.289062 11.625 -10.40625 C 12.425781 -9.53125 12.828125 -8.320312 12.828125 -6.78125 L 12.828125 0 L 9.296875 0 L 9.296875 -6.296875 C 9.296875 -7.078125 9.09375 -7.679688 8.6875 -8.109375 C 8.289062 -8.535156 7.753906 -8.75 7.078125 -8.75 C 6.390625 -8.75 5.84375 -8.535156 5.4375 -8.109375 C 5.039062 -7.679688 4.84375 -7.078125 4.84375 -6.296875 L 4.84375 0 L 1.296875 0 L 1.296875 -15.390625 L 4.84375 -15.390625 L 4.84375 -10.046875 C 5.207031 -10.554688 5.703125 -10.960938 6.328125 -11.265625 C 6.953125 -11.578125 7.648438 -11.734375 8.421875 -11.734375 Z M 8.421875 -11.734375 "/></g></g></g><g fill="#062510" fill-opacity="1"><g transform="translate(226.595154, 222.8994)"><g><path d="M 6.578125 0.171875 C 5.429688 0.171875 4.40625 -0.0703125 3.5 -0.5625 C 2.59375 -1.050781 1.878906 -1.742188 1.359375 -2.640625 C 0.835938 -3.546875 0.578125 -4.597656 0.578125 -5.796875 C 0.578125 -6.992188 0.835938 -8.046875 1.359375 -8.953125 C 1.890625 -9.859375 2.613281 -10.550781 3.53125 -11.03125 C 4.445312 -11.519531 5.472656 -11.765625 6.609375 -11.765625 C 7.742188 -11.765625 8.769531 -11.519531 9.6875 -11.03125 C 10.601562 -10.550781 11.320312 -9.859375 11.84375 -8.953125 C 12.375 -8.046875 12.640625 -6.992188 12.640625 -5.796875 C 12.640625 -4.609375 12.375 -3.5625 11.84375 -2.65625 C 11.3125 -1.75 10.582031 -1.050781 9.65625 -0.5625 C 8.738281 -0.0703125 7.710938 0.171875 6.578125 0.171875 Z M 6.578125 -2.90625 C 7.253906 -2.90625 7.832031 -3.15625 8.3125 -3.65625 C 8.789062 -4.15625 9.03125 -4.867188 9.03125 -5.796875 C 9.03125 -6.734375 8.796875 -7.445312 8.328125 -7.9375 C 7.859375 -8.4375 7.285156 -8.6875 6.609375 -8.6875 C 5.921875 -8.6875 5.347656 -8.441406 4.890625 -7.953125 C 4.429688 -7.460938 4.203125 -6.742188 4.203125 -5.796875 C 4.203125 -4.867188 4.425781 -4.15625 4.875 -3.65625 C 5.320312 -3.15625 5.890625 -2.90625 6.578125 -2.90625 Z M 6.578125 -2.90625 "/></g></g></g><g fill="#062510" fill-opacity="1"><g transform="translate(239.837799, 222.8994)"><g><path d="M 6.578125 0.171875 C 5.429688 0.171875 4.40625 -0.0703125 3.5 -0.5625 C 2.59375 -1.050781 1.878906 -1.742188 1.359375 -2.640625 C 0.835938 -3.546875 0.578125 -4.597656 0.578125 -5.796875 C 0.578125 -6.992188 0.835938 -8.046875 1.359375 -8.953125 C 1.890625 -9.859375 2.613281 -10.550781 3.53125 -11.03125 C 4.445312 -11.519531 5.472656 -11.765625 6.609375 -11.765625 C 7.742188 -11.765625 8.769531 -11.519531 9.6875 -11.03125 C 10.601562 -10.550781 11.320312 -9.859375 11.84375 -8.953125 C 12.375 -8.046875 12.640625 -6.992188 12.640625 -5.796875 C 12.640625 -4.609375 12.375 -3.5625 11.84375 -2.65625 C 11.3125 -1.75 10.582031 -1.050781 9.65625 -0.5625 C 8.738281 -0.0703125 7.710938 0.171875 6.578125 0.171875 Z M 6.578125 -2.90625 C 7.253906 -2.90625 7.832031 -3.15625 8.3125 -3.65625 C 8.789062 -4.15625 9.03125 -4.867188 9.03125 -5.796875 C 9.03125 -6.734375 8.796875 -7.445312 8.328125 -7.9375 C 7.859375 -8.4375 7.285156 -8.6875 6.609375 -8.6875 C 5.921875 -8.6875 5.347656 -8.441406 4.890625 -7.953125 C 4.429688 -7.460938 4.203125 -6.742188 4.203125 -5.796875 C 4.203125 -4.867188 4.425781 -4.15625 4.875 -3.65625 C 5.320312 -3.15625 5.890625 -2.90625 6.578125 -2.90625 Z M 6.578125 -2.90625 "/></g></g></g><g fill="#062510" fill-opacity="1"><g transform="translate(253.080443, 222.8994)"><g><path d="M 4.84375 -15.390625 L 4.84375 0 L 1.296875 0 L 1.296875 -15.390625 Z M 4.84375 -15.390625 "/></g></g></g><g fill="#062510" fill-opacity="1"><g transform="translate(259.213228, 222.8994)"><g><path d="M 6.015625 0.171875 C 4.992188 0.171875 4.085938 0 3.296875 -0.34375 C 2.515625 -0.695312 1.894531 -1.175781 1.4375 -1.78125 C 0.976562 -2.382812 0.722656 -3.0625 0.671875 -3.8125 L 4.1875 -3.8125 C 4.226562 -3.40625 4.410156 -3.078125 4.734375 -2.828125 C 5.066406 -2.578125 5.476562 -2.453125 5.96875 -2.453125 C 6.414062 -2.453125 6.757812 -2.535156 7 -2.703125 C 7.238281 -2.878906 7.359375 -3.109375 7.359375 -3.390625 C 7.359375 -3.722656 7.1875 -3.96875 6.84375 -4.125 C 6.5 -4.289062 5.9375 -4.46875 5.15625 -4.65625 C 4.320312 -4.851562 3.628906 -5.054688 3.078125 -5.265625 C 2.523438 -5.484375 2.046875 -5.820312 1.640625 -6.28125 C 1.242188 -6.75 1.046875 -7.378906 1.046875 -8.171875 C 1.046875 -8.835938 1.226562 -9.441406 1.59375 -9.984375 C 1.957031 -10.535156 2.492188 -10.96875 3.203125 -11.28125 C 3.921875 -11.601562 4.773438 -11.765625 5.765625 -11.765625 C 7.210938 -11.765625 8.351562 -11.40625 9.1875 -10.6875 C 10.03125 -9.96875 10.515625 -9.007812 10.640625 -7.8125 L 7.359375 -7.8125 C 7.304688 -8.21875 7.128906 -8.535156 6.828125 -8.765625 C 6.535156 -9.003906 6.144531 -9.125 5.65625 -9.125 C 5.238281 -9.125 4.921875 -9.046875 4.703125 -8.890625 C 4.484375 -8.734375 4.375 -8.515625 4.375 -8.234375 C 4.375 -7.898438 4.546875 -7.648438 4.890625 -7.484375 C 5.242188 -7.316406 5.796875 -7.148438 6.546875 -6.984375 C 7.410156 -6.765625 8.113281 -6.546875 8.65625 -6.328125 C 9.195312 -6.117188 9.671875 -5.773438 10.078125 -5.296875 C 10.484375 -4.816406 10.691406 -4.175781 10.703125 -3.375 C 10.703125 -2.6875 10.507812 -2.078125 10.125 -1.546875 C 9.75 -1.015625 9.203125 -0.59375 8.484375 -0.28125 C 7.773438 0.0195312 6.953125 0.171875 6.015625 0.171875 Z M 6.015625 0.171875 "/></g></g></g><g fill="#062510" fill-opacity="1"><g transform="translate(270.821691, 222.8994)"><g/></g></g><g transform="matrix(1, 0, 0, 1, 110, 148)"><g clip-path="url(#9017ea8d82)"><g fill="#000000" fill-opacity="1"><g transform="translate(0.968632, 35.098711)"><g><path d="M 3.765625 0 C 4.359375 -1.925781 4.65625 -4.535156 4.65625 -7.828125 L 4.65625 -24.78125 C 4.65625 -26.363281 4.566406 -27.835938 4.390625 -29.203125 C 4.222656 -30.566406 4.015625 -31.703125 3.765625 -32.609375 L 12.71875 -32.609375 C 12.46875 -31.640625 12.265625 -30.523438 12.109375 -29.265625 C 11.953125 -28.015625 11.875 -26.613281 11.875 -25.0625 L 11.875 -19.375 L 32.234375 -19.375 L 32.234375 -25.0625 C 32.234375 -26.644531 32.15625 -28.070312 32 -29.34375 C 31.84375 -30.613281 31.640625 -31.703125 31.390625 -32.609375 L 40.34375 -32.609375 C 40.09375 -31.703125 39.890625 -30.566406 39.734375 -29.203125 C 39.578125 -27.835938 39.5 -26.363281 39.5 -24.78125 L 39.5 -7.828125 C 39.5 -6.242188 39.566406 -4.765625 39.703125 -3.390625 C 39.847656 -2.023438 40.0625 -0.894531 40.34375 0 L 31.390625 0 C 31.640625 -0.894531 31.84375 -1.976562 32 -3.25 C 32.15625 -4.53125 32.234375 -5.960938 32.234375 -7.546875 L 32.234375 -13.328125 L 11.875 -13.328125 L 11.875 -7.546875 C 11.875 -6.023438 11.9375 -4.632812 12.0625 -3.375 C 12.1875 -2.113281 12.40625 -0.988281 12.71875 0 Z M 3.765625 0 "/></g></g></g><g fill="#000000" fill-opacity="1"><g transform="translate(46.151652, 35.098711)"><g><path d="M -0.5625 0 C 0.0625 -0.894531 0.800781 -2.050781 1.65625 -3.46875 C 2.507812 -4.882812 3.320312 -6.335938 4.09375 -7.828125 L 12.953125 -24.78125 C 13.722656 -26.332031 14.316406 -27.796875 14.734375 -29.171875 C 15.160156 -30.554688 15.453125 -31.703125 15.609375 -32.609375 L 27.015625 -32.609375 C 27.234375 -31.546875 27.550781 -30.300781 27.96875 -28.875 C 28.382812 -27.445312 28.90625 -26.097656 29.53125 -24.828125 L 38.46875 -7.828125 C 39.25 -6.304688 40.054688 -4.84375 40.890625 -3.4375 C 41.734375 -2.039062 42.460938 -0.894531 43.078125 0 L 33.953125 0 C 33.859375 -0.625 33.65625 -1.335938 33.34375 -2.140625 C 33.039062 -2.953125 32.546875 -3.960938 31.859375 -5.171875 L 30.515625 -7.640625 L 12.015625 -7.640625 L 10.671875 -5.125 C 10.109375 -3.945312 9.640625 -2.953125 9.265625 -2.140625 C 8.890625 -1.335938 8.660156 -0.625 8.578125 0 Z M 14.71875 -13.1875 L 27.8125 -13.1875 L 23.46875 -21.515625 C 23.070312 -22.390625 22.71875 -23.238281 22.40625 -24.0625 C 22.09375 -24.882812 21.78125 -25.742188 21.46875 -26.640625 L 21.046875 -26.640625 C 20.742188 -25.710938 20.4375 -24.84375 20.125 -24.03125 C 19.8125 -23.226562 19.4375 -22.375 19 -21.46875 Z M 14.71875 -13.1875 "/></g></g></g><g fill="#000000" fill-opacity="1"><g transform="translate(89.750937, 35.098711)"><g><path d="M 14.578125 0 C 14.828125 -0.925781 15.03125 -2.066406 15.1875 -3.421875 C 15.34375 -4.773438 15.421875 -6.242188 15.421875 -7.828125 L 15.421875 -26.265625 L 7.3125 -26.265625 C 5.789062 -26.265625 4.554688 -26.203125 3.609375 -26.078125 C 2.660156 -25.953125 1.785156 -25.753906 0.984375 -25.484375 L 2.421875 -32.609375 L 35.625 -32.609375 L 37.078125 -25.484375 C 36.296875 -25.722656 35.425781 -25.910156 34.46875 -26.046875 C 33.507812 -26.191406 32.265625 -26.265625 30.734375 -26.265625 L 22.6875 -26.265625 L 22.6875 -7.828125 C 22.6875 -6.242188 22.753906 -4.773438 22.890625 -3.421875 C 23.035156 -2.066406 23.242188 -0.925781 23.515625 0 Z M 14.578125 0 "/></g></g></g><g fill="#000000" fill-opacity="1"><g transform="translate(128.83192, 35.098711)"><g><path d="M 23.5625 0.65625 C 20.613281 0.65625 17.84375 0.289062 15.25 -0.4375 C 12.65625 -1.164062 10.375 -2.253906 8.40625 -3.703125 C 6.4375 -5.148438 4.890625 -6.921875 3.765625 -9.015625 C 2.648438 -11.109375 2.09375 -13.519531 2.09375 -16.25 C 2.09375 -18.988281 2.644531 -21.410156 3.75 -23.515625 C 4.851562 -25.628906 6.375 -27.40625 8.3125 -28.84375 C 10.25 -30.289062 12.503906 -31.382812 15.078125 -32.125 C 17.660156 -32.875 20.441406 -33.25 23.421875 -33.25 C 26.097656 -33.25 28.625 -32.984375 31 -32.453125 C 33.375 -31.929688 35.367188 -31.253906 36.984375 -30.421875 L 36.375 -23.421875 C 35.070312 -24.421875 33.359375 -25.253906 31.234375 -25.921875 C 29.109375 -26.585938 26.800781 -26.921875 24.3125 -26.921875 C 21.519531 -26.921875 19 -26.492188 16.75 -25.640625 C 14.5 -24.785156 12.710938 -23.566406 11.390625 -21.984375 C 10.066406 -20.398438 9.40625 -18.488281 9.40625 -16.25 C 9.40625 -13.988281 10.085938 -12.070312 11.453125 -10.5 C 12.816406 -8.9375 14.664062 -7.742188 17 -6.921875 C 19.332031 -6.097656 21.957031 -5.6875 24.875 -5.6875 C 27.476562 -5.6875 29.96875 -6.039062 32.34375 -6.75 C 34.71875 -7.46875 36.695312 -8.445312 38.28125 -9.6875 L 38.28125 -2.1875 C 36.394531 -1.320312 34.207031 -0.628906 31.71875 -0.109375 C 29.238281 0.398438 26.519531 0.65625 23.5625 0.65625 Z M 23.5625 0.65625 "/></g></g></g><g fill="#000000" fill-opacity="1"><g transform="translate(169.729541, 35.098711)"><g><path d="M 3.765625 0 C 4.359375 -1.925781 4.65625 -4.535156 4.65625 -7.828125 L 4.65625 -24.78125 C 4.65625 -26.363281 4.566406 -27.835938 4.390625 -29.203125 C 4.222656 -30.566406 4.015625 -31.703125 3.765625 -32.609375 L 12.71875 -32.609375 C 12.46875 -31.640625 12.265625 -30.523438 12.109375 -29.265625 C 11.953125 -28.015625 11.875 -26.613281 11.875 -25.0625 L 11.875 -19.375 L 32.234375 -19.375 L 32.234375 -25.0625 C 32.234375 -26.644531 32.15625 -28.070312 32 -29.34375 C 31.84375 -30.613281 31.640625 -31.703125 31.390625 -32.609375 L 40.34375 -32.609375 C 40.09375 -31.703125 39.890625 -30.566406 39.734375 -29.203125 C 39.578125 -27.835938 39.5 -26.363281 39.5 -24.78125 L 39.5 -7.828125 C 39.5 -6.242188 39.566406 -4.765625 39.703125 -3.390625 C 39.847656 -2.023438 40.0625 -0.894531 40.34375 0 L 31.390625 0 C 31.640625 -0.894531 31.84375 -1.976562 32 -3.25 C 32.15625 -4.53125 32.234375 -5.960938 32.234375 -7.546875 L 32.234375 -13.328125 L 11.875 -13.328125 L 11.875 -7.546875 C 11.875 -6.023438 11.9375 -4.632812 12.0625 -3.375 C 12.1875 -2.113281 12.40625 -0.988281 12.71875 0 Z M 3.765625 0 "/></g></g></g></g></g><path fill="#000000" d="M 84.414062 175.246094 C 85.253906 171.589844 84.726562 167.714844 83.519531 164.203125 C 82.640625 160.96875 82.21875 157.566406 82.730469 154.257812 C 83.207031 152.519531 83.773438 150.765625 83.628906 148.9375 C 83.683594 143.910156 79.421875 139.320312 74.449219 138.882812 C 72.675781 138.753906 70.828125 138.789062 69.164062 139.519531 C 66.460938 140.617188 64.210938 142.777344 63.242188 145.574219 C 61.78125 150.050781 57.996094 153.125 54.355469 155.847656 C 48.414062 160.035156 45.25 167.789062 46.675781 174.9375 C 47.71875 181.042969 51.960938 186.492188 57.628906 188.996094 C 63.1875 191.5 69.933594 191.261719 75.199219 188.15625 C 79.933594 185.449219 83.390625 180.585938 84.414062 175.246094 Z M 65.160156 186.199219 C 60.882812 186.144531 56.714844 184.058594 53.972656 180.804688 C 52.910156 179.597656 52.289062 178.117188 51.429688 176.78125 C 54.394531 179.871094 58.34375 182.140625 62.65625 182.578125 C 68.050781 183.273438 73.664062 181.132812 77.394531 177.203125 C 78.671875 175.796875 79.695312 174.167969 80.609375 172.503906 C 80.226562 175.703125 78.964844 178.8125 76.789062 181.207031 C 73.863281 184.40625 69.511719 186.363281 65.160156 186.199219 Z M 65.160156 186.199219 " fill-opacity="1" fill-rule="nonzero"/><path fill="#000000" d="M 41.046875 172.796875 C 41.996094 172.667969 42.710938 171.808594 42.691406 170.839844 C 42.691406 170.839844 42.691406 170.824219 42.691406 170.824219 C 42.671875 169.925781 42.050781 169.121094 41.175781 168.957031 C 39.96875 168.71875 38.6875 168.773438 37.445312 168.847656 C 36.183594 168.921875 35.214844 170.144531 35.5625 171.371094 C 35.652344 171.664062 35.800781 171.9375 36.035156 172.175781 C 36.660156 172.941406 37.738281 172.722656 38.613281 172.816406 C 39.382812 172.796875 40.242188 172.90625 41.046875 172.796875 Z M 41.046875 172.796875 " fill-opacity="1" fill-rule="nonzero"/><path fill="#000000" d="M 41.265625 179.46875 C 40.1875 179.910156 39.070312 180.292969 38.085938 180.914062 C 36.75 182.324219 38.210938 185.320312 40.242188 184.332031 C 41.722656 183.65625 43.789062 183.402344 44.59375 181.828125 C 45.214844 179.871094 42.929688 178.320312 41.265625 179.46875 Z M 41.265625 179.46875 " fill-opacity="1" fill-rule="nonzero"/><path fill="#000000" d="M 86.332031 184.097656 C 84.707031 183.785156 83.097656 185.246094 83.609375 186.929688 C 84.613281 188.246094 86.132812 189.070312 87.503906 189.964844 C 89.242188 190.914062 91.125 188.519531 90.082031 186.964844 C 88.964844 185.832031 87.539062 185.082031 86.332031 184.097656 Z M 86.332031 184.097656 " fill-opacity="1" fill-rule="nonzero"/><path fill="#000000" d="M 47.410156 188.082031 C 46.421875 188.976562 45.527344 189.945312 44.667969 190.96875 C 44.464844 191.207031 44.335938 191.480469 44.320312 191.792969 C 44.320312 191.8125 44.320312 191.828125 44.320312 191.847656 C 44.28125 192.796875 44.777344 193.710938 45.617188 194.132812 C 46.054688 194.351562 46.53125 194.445312 47.023438 194.152344 C 48.378906 193.273438 49.4375 191.996094 50.40625 190.714844 C 51.429688 188.941406 48.980469 186.929688 47.410156 188.082031 Z M 47.410156 188.082031 " fill-opacity="1" fill-rule="nonzero"/><path fill="#000000" d="M 79.570312 192.105469 C 79.039062 191.355469 78.089844 191.007812 77.210938 191.300781 C 77.191406 191.300781 77.191406 191.300781 77.175781 191.316406 C 76.203125 191.683594 75.675781 192.761719 75.949219 193.769531 C 76.296875 195.046875 77.246094 196.164062 77.921875 197.296875 C 78.964844 198.996094 82.019531 197.679688 81.542969 195.722656 C 81.050781 194.460938 80.375 193.238281 79.570312 192.105469 Z M 79.570312 192.105469 " fill-opacity="1" fill-rule="nonzero"/><path fill="#000000" d="M 55.800781 194.078125 C 55.289062 195.394531 54.558594 196.785156 54.464844 198.210938 C 54.394531 199.214844 55.144531 200.128906 56.148438 200.257812 C 56.222656 200.257812 56.277344 200.277344 56.347656 200.277344 C 57.152344 200.332031 57.902344 199.894531 58.25 199.179688 C 58.816406 197.972656 59.292969 196.691406 59.550781 195.375 C 59.96875 193.367188 56.714844 192.25 55.800781 194.078125 Z M 55.800781 194.078125 " fill-opacity="1" fill-rule="nonzero"/><g clip-path="url(#0c4a70425a)"><path fill="#000000" d="M 69.074219 194.683594 C 67.8125 193.914062 66.167969 194.882812 66.09375 196.363281 C 66.019531 197.589844 66.019531 198.851562 66.296875 200.039062 C 66.476562 200.878906 67.191406 201.5 68.03125 201.574219 C 68.050781 201.574219 68.050781 201.574219 68.070312 201.574219 C 69.128906 201.648438 70.0625 200.84375 70.136719 199.78125 C 70.226562 198.464844 70.042969 197.113281 69.878906 195.816406 C 69.789062 195.304688 69.476562 194.9375 69.074219 194.683594 Z M 69.074219 194.683594 " fill-opacity="1" fill-rule="nonzero"/></g><path fill="#000000" d="M 66.605469 112.460938 C 69.203125 117.03125 71.78125 121.621094 74.339844 126.210938 C 74.597656 126.703125 74.941406 127.144531 75.34375 127.527344 C 74.925781 125.808594 73.863281 124.363281 73.1875 122.738281 C 71.285156 118.75 69.292969 114.800781 67.375 110.796875 C 67.335938 110.6875 67.300781 110.578125 67.246094 110.507812 C 66.808594 109.757812 65.617188 110.359375 65.910156 111.164062 C 66.074219 111.621094 66.40625 112.042969 66.605469 112.460938 Z M 66.605469 112.460938 " fill-opacity="1" fill-rule="nonzero"/><path fill="#000000" d="M 101.949219 122.097656 C 96.902344 124.382812 92 127.015625 86.972656 129.355469 C 86.167969 129.757812 85.273438 130.085938 84.707031 130.835938 C 90.539062 128.625 96.207031 126.011719 101.949219 123.632812 C 102.84375 123.523438 102.933594 122.097656 101.949219 122.097656 Z M 101.949219 122.097656 " fill-opacity="1" fill-rule="nonzero"/><path fill="#000000" d="M 83.226562 130.25 C 83.5 128.1875 81.652344 125.972656 79.496094 126.320312 C 78.417969 126.449219 76.953125 127.015625 77.0625 128.3125 C 79.148438 128.863281 81.125 129.738281 83.226562 130.25 Z M 83.226562 130.25 " fill-opacity="1" fill-rule="nonzero"/><g clip-path="url(#df8de5f301)"><path fill="#000000" d="M 47.023438 161.71875 C 43.441406 162.6875 39.382812 163.453125 35.890625 161.773438 C 33.625 160.765625 32.472656 158.078125 32.984375 155.703125 C 33.660156 151.808594 36.144531 148.554688 38.777344 145.71875 C 43.933594 140.546875 50.40625 136.503906 57.539062 134.714844 C 61.25 133.796875 65.691406 133.46875 68.78125 136.15625 C 67.886719 134.292969 66.019531 133.011719 64.027344 132.59375 C 60.171875 131.714844 56.167969 132.539062 52.472656 133.707031 C 45.945312 135.917969 39.984375 139.703125 35.03125 144.511719 C 32.34375 147.273438 29.855469 150.382812 28.578125 154.074219 C 27.847656 156.214844 27.589844 158.71875 28.796875 160.75 C 30.167969 163.105469 33.039062 164.003906 35.617188 164.09375 C 39.527344 164.222656 43.460938 163.308594 47.023438 161.71875 Z M 47.023438 161.71875 " fill-opacity="1" fill-rule="nonzero"/></g><g clip-path="url(#96c52bd37b)"><path fill="#000000" d="M 100.484375 152.027344 C 98.273438 148.242188 95.53125 144.550781 91.726562 142.226562 C 89.589844 140.894531 86.863281 140.4375 84.503906 141.496094 C 88.382812 141.3125 91.5625 143.984375 93.921875 146.78125 C 98.472656 152.300781 101.179688 159.175781 102.3125 166.214844 C 102.898438 170.421875 102.953125 174.953125 100.980469 178.832031 C 99.863281 181.078125 97.230469 182.652344 94.726562 181.902344 C 91.125 181.0625 88.65625 178.082031 86.296875 175.464844 C 88.5625 179.234375 91.433594 182.890625 95.421875 184.9375 C 97.707031 186.144531 100.832031 186.308594 102.824219 184.441406 C 105.75 181.792969 106.300781 177.570312 106.425781 173.839844 C 106.445312 166.214844 104.179688 158.664062 100.484375 152.027344 Z M 100.484375 152.027344 " fill-opacity="1" fill-rule="nonzero"/></g><path fill="#000000" d="M 84.890625 135.042969 L 71.796875 130.910156 L 71.597656 132.574219 L 84.835938 136.945312 Z M 84.890625 135.042969 " fill-opacity="1" fill-rule="nonzero"/><path fill="#000000" d="M 71.25 133.835938 L 70.902344 133.726562 L 70.902344 133.816406 L 70.867188 135.535156 L 71.597656 135.753906 L 84.085938 139.519531 C 84.085938 139.027344 84.066406 138.535156 84.03125 138.023438 Z M 71.25 133.835938 " fill-opacity="1" fill-rule="nonzero"/><path fill="#000000" d="M 85.566406 134.199219 L 85.621094 133.980469 L 86.058594 132.410156 L 73.683594 128.332031 L 73.058594 128.132812 L 73.003906 128.386719 L 72.695312 129.722656 L 72.65625 129.90625 L 73.003906 130.015625 C 73.097656 130.070312 73.207031 130.105469 73.316406 130.125 L 73.683594 130.25 L 85 134.019531 Z M 85.566406 134.199219 " fill-opacity="1" fill-rule="nonzero"/></svg>